<svg viewBox="0 0 1851 1528" fill="none" xmlns="http://www.w3.org/2000/svg">
  <path
    d="M1016.26 173.027C1007.3 173.027 1000.03 180.293 1000.03 189.253V226.693C1000.03 235.653 1007.3 242.907 1016.26 242.907C1025.22 242.907 1032.47 235.653 1032.47 226.693V189.253C1032.47 180.293 1025.22 173.027 1016.26 173.027ZM772.784 213.227C772.784 126.107 843.661 55.2266 930.777 55.2266C1017.9 55.2266 1088.78 126.107 1088.78 213.227V418.587H772.784V213.227ZM930.777 836.307C1048.07 836.307 1143.15 741.227 1143.15 623.933V213.227C1143.15 95.9333 1048.07 0.853246 930.777 0.853246C813.491 0.853246 718.408 95.9333 718.408 213.227V623.933C718.408 741.227 813.491 836.307 930.777 836.307ZM1237.79 376.333C1223.06 376.867 1211.59 389.427 1211.59 404.16V625.613C1211.59 780 1085.3 908.787 930.911 908.853C776.009 908.933 649.967 782.933 649.967 628.04V404.16C649.967 389.427 638.504 376.867 623.772 376.333C608.305 375.787 595.591 388.16 595.591 403.507V628.04C595.591 803.707 731.445 948.133 903.592 962.04V1058.35H746.639C731.623 1058.35 719.449 1070.52 719.449 1085.53C719.449 1100.55 731.623 1112.72 746.639 1112.72H1114.92C1129.94 1112.72 1142.11 1100.55 1142.11 1085.53C1142.11 1070.52 1129.94 1058.35 1114.92 1058.35H957.964V962.04C1130.11 948.133 1265.96 803.707 1265.96 628.04V403.507C1265.96 388.16 1253.26 375.787 1237.79 376.333ZM1016.26 280.147C1007.3 280.147 1000.03 287.4 1000.03 296.36V333.8C1000.03 342.76 1007.3 350.027 1016.26 350.027C1025.22 350.027 1032.47 342.76 1032.47 333.8V296.36C1032.47 287.4 1025.22 280.147 1016.26 280.147ZM930.777 173.027C921.821 173.027 914.559 180.293 914.559 189.253V226.693C914.559 235.653 921.821 242.907 930.777 242.907C939.737 242.907 947.004 235.653 947.004 226.693V189.253C947.004 180.293 939.737 173.027 930.777 173.027ZM845.308 173.027C836.349 173.027 829.087 180.293 829.087 189.253V226.693C829.087 235.653 836.349 242.907 845.308 242.907C854.268 242.907 861.531 235.653 861.531 226.693V189.253C861.531 180.293 854.268 173.027 845.308 173.027ZM845.308 280.147C836.349 280.147 829.087 287.4 829.087 296.36V333.8C829.087 342.76 836.349 350.027 845.308 350.027C854.268 350.027 861.531 342.76 861.531 333.8V296.36C861.531 287.4 854.268 280.147 845.308 280.147ZM930.777 280.147C921.821 280.147 914.559 287.4 914.559 296.36V333.8C914.559 342.76 921.821 350.027 930.777 350.027C939.737 350.027 947.004 342.76 947.004 333.8V296.36C947.004 287.4 939.737 280.147 930.777 280.147Z"
    fill="black"
  />
  <path
    d="M507.824 816.267C492.893 816.267 480.791 804.16 480.791 789.24V324.347C480.791 309.413 492.893 297.307 507.824 297.307C522.753 297.307 534.857 309.413 534.857 324.347V789.24C534.857 804.16 522.753 816.267 507.824 816.267Z"
    fill="black"
  />
  <path
    d="M385.832 749.6C370.903 749.6 358.8 737.493 358.8 722.573V391.013C358.8 376.08 370.903 363.973 385.832 363.973C400.761 363.973 412.864 376.08 412.864 391.013V722.573C412.864 737.493 400.761 749.6 385.832 749.6Z"
    fill="black"
  />
  <path
    d="M263.84 896.267C248.911 896.267 236.807 884.16 236.807 869.24V244.347C236.807 229.413 248.911 217.307 263.84 217.307C278.769 217.307 290.873 229.413 290.873 244.347V869.24C290.873 884.16 278.769 896.267 263.84 896.267Z"
    fill="black"
  />
  <path
    d="M141.848 682.933C126.919 682.933 114.815 670.827 114.815 655.907V457.68C114.815 442.747 126.919 430.64 141.848 430.64C156.777 430.64 168.881 442.747 168.881 457.68V655.907C168.881 670.827 156.777 682.933 141.848 682.933Z"
    fill="black"
  />
  <path
    d="M27.032 616.267C12.1027 616.267 0 604.16 0 589.24V524.347C0 509.413 12.1027 497.307 27.032 497.307C41.9627 497.307 54.0653 509.413 54.0653 524.347V589.24C54.0653 604.16 41.9627 616.267 27.032 616.267Z"
    fill="black"
  />
  <path
    d="M1343.06 816.267C1357.99 816.267 1370.1 804.16 1370.1 789.24V324.347C1370.1 309.413 1357.99 297.307 1343.06 297.307C1328.14 297.307 1316.03 309.413 1316.03 324.347V789.24C1316.03 804.16 1328.14 816.267 1343.06 816.267Z"
    fill="black"
  />
  <path
    d="M1465.06 749.6C1479.99 749.6 1492.08 737.493 1492.08 722.573V391.013C1492.08 376.08 1479.99 363.973 1465.06 363.973C1450.12 363.973 1438.02 376.08 1438.02 391.013V722.573C1438.02 737.493 1450.12 749.6 1465.06 749.6Z"
    fill="black"
  />
  <path
    d="M1587.04 896.267C1601.98 896.267 1614.08 884.16 1614.08 869.24V244.347C1614.08 229.413 1601.98 217.307 1587.04 217.307C1572.12 217.307 1560.02 229.413 1560.02 244.347V869.24C1560.02 884.16 1572.12 896.267 1587.04 896.267Z"
    fill="black"
  />
  <path
    d="M1709.04 682.933C1723.96 682.933 1736.07 670.827 1736.07 655.907V457.68C1736.07 442.747 1723.96 430.64 1709.04 430.64C1694.11 430.64 1682 442.747 1682 457.68V655.907C1682 670.827 1694.11 682.933 1709.04 682.933Z"
    fill="black"
  />
  <path
    d="M1823.86 616.267C1838.79 616.267 1850.88 604.16 1850.88 589.24V524.347C1850.88 509.413 1838.79 497.307 1823.86 497.307C1808.92 497.307 1796.82 509.413 1796.82 524.347V589.24C1796.82 604.16 1808.92 616.267 1823.86 616.267Z"
    fill="black"
  />
  <path
    d="M231.596 1404.24C239.435 1397.51 243.36 1387.61 243.36 1374.59C243.36 1361.77 239.435 1352.11 231.596 1345.59C223.752 1339.08 212.429 1335.81 197.633 1335.81H154.225V1414.35H197.633C212.429 1414.35 223.752 1410.97 231.596 1404.24ZM268.873 1313.44C284.996 1327.48 293.063 1347.31 293.063 1372.92C293.063 1399.88 284.944 1420.8 268.707 1435.72C252.472 1450.63 229.66 1458.08 200.284 1458.08H154.225V1524.35H101.872V1292.4H200.284C229.883 1292.4 252.747 1299.43 268.873 1313.44Z"
    fill="black"
  />
  <path
    d="M409.364 1344.27C398.316 1350.79 389.592 1359.67 383.188 1370.93C376.777 1382.2 373.579 1394.57 373.579 1408.05C373.579 1421.75 376.835 1434.23 383.353 1445.49C389.865 1456.76 398.595 1465.71 409.529 1472.33C420.465 1478.96 432.336 1482.27 445.151 1482.27C457.96 1482.27 469.723 1479.01 480.439 1472.49C491.151 1465.99 499.657 1457.04 505.953 1445.65C512.249 1434.28 515.397 1421.75 515.397 1408.05C515.397 1394.57 512.249 1382.2 505.953 1370.93C499.657 1359.67 491.151 1350.79 480.439 1344.27C469.723 1337.75 457.96 1334.49 445.151 1334.49C432.336 1334.49 420.408 1337.75 409.364 1344.27ZM507.776 1304.33C526.772 1314.72 541.74 1329.01 552.675 1347.24C563.609 1365.47 569.076 1385.73 569.076 1408.05C569.076 1430.36 563.609 1450.68 552.675 1469.01C541.74 1487.36 526.772 1501.77 507.776 1512.25C488.775 1522.75 467.683 1528 444.488 1528C421.293 1528 400.195 1522.75 381.199 1512.25C362.197 1501.77 347.236 1487.4 336.301 1469.19C325.367 1450.96 319.9 1430.57 319.9 1408.05C319.9 1385.73 325.367 1365.47 336.301 1347.24C347.236 1329.01 362.147 1314.72 381.033 1304.33C399.92 1293.95 421.071 1288.76 444.488 1288.76C467.683 1288.76 488.775 1293.95 507.776 1304.33Z"
    fill="black"
  />
  <path
    d="M747.841 1471.17C758.112 1465.09 766.117 1456.65 771.863 1445.83C777.605 1435 780.479 1422.63 780.479 1408.71C780.479 1394.79 777.44 1382.32 771.367 1371.27C765.288 1360.23 757.005 1351.67 746.516 1345.59C736.021 1339.52 724.148 1336.48 710.895 1336.48H665.831V1480.28H713.215C726.024 1480.28 737.569 1477.25 747.841 1471.17ZM775.177 1307.15C793.733 1316.99 808.147 1330.68 818.417 1348.24C828.691 1365.8 833.827 1385.84 833.827 1408.37C833.827 1430.91 828.577 1450.96 818.087 1468.52C807.592 1486.08 792.956 1499.79 774.184 1509.61C755.405 1519.44 733.975 1524.35 709.901 1524.35H613.477V1292.4H711.889C735.524 1292.4 756.621 1297.32 775.177 1307.15Z"
    fill="black"
  />
  <path
    d="M1012.26 1342.6C1001.55 1337.2 990.777 1334.49 979.951 1334.49C966.924 1334.49 954.991 1337.69 944.164 1344.09C933.337 1350.51 924.837 1359.23 918.655 1370.28C912.468 1381.32 909.377 1393.59 909.377 1407.05C909.377 1420.53 912.468 1432.84 918.655 1444C924.837 1455.16 933.337 1464 944.164 1470.51C954.991 1477.03 966.924 1480.28 979.951 1480.28C990.337 1480.28 1000.88 1477.8 1011.6 1472.83C1022.31 1467.85 1031.86 1461.17 1040.26 1452.79L1071.07 1486.24C1058.7 1499.07 1044.18 1509.23 1027.5 1516.73C1010.82 1524.24 994.084 1528 977.311 1528C954.551 1528 933.897 1522.75 915.341 1512.25C896.785 1501.77 882.205 1487.36 871.603 1469.01C861 1450.68 855.697 1430.25 855.697 1407.72C855.697 1385.4 861.108 1365.2 871.935 1347.08C882.755 1328.97 897.615 1314.72 916.501 1304.33C935.391 1293.95 956.311 1288.76 979.297 1288.76C996.084 1288.76 1012.64 1292.24 1028.99 1299.2C1045.34 1306.16 1059.26 1315.6 1070.75 1327.53L1040.26 1364.97C1032.31 1355.48 1022.98 1348.03 1012.26 1342.6Z"
    fill="black"
  />
  <path
    d="M1172.8 1437.2H1246.03L1209.58 1347.08L1172.8 1437.2ZM1281.15 1524.35L1262.92 1479.29H1155.56L1137.35 1524.35H1083.34L1184.07 1292.4H1238.07L1337.15 1524.35H1281.15Z"
    fill="black"
  />
  <path
    d="M1484.76 1339.63C1471.39 1335.32 1459.96 1333.16 1450.47 1333.16C1441.4 1333.16 1434.23 1334.81 1428.94 1338.13C1423.63 1341.44 1420.98 1346.31 1420.98 1352.71C1420.98 1360.89 1424.79 1367.12 1432.42 1371.43C1440.03 1375.73 1451.79 1380.21 1467.7 1384.85C1483.6 1389.49 1496.7 1394.13 1506.96 1398.77C1517.24 1403.41 1526.02 1410.36 1533.31 1419.64C1540.6 1428.92 1544.24 1441.19 1544.24 1456.43C1544.24 1471.23 1540.32 1483.99 1532.48 1494.69C1524.63 1505.41 1513.87 1513.53 1500.18 1519.05C1486.47 1524.57 1470.9 1527.33 1453.46 1527.33C1434.67 1527.33 1416.23 1524.03 1398.11 1517.4C1380 1510.76 1364.32 1501.71 1351.07 1490.23L1371.94 1447.48C1383.64 1458.08 1397.12 1466.59 1412.36 1472.99C1427.6 1479.4 1441.52 1482.6 1454.11 1482.6C1464.94 1482.6 1473.39 1480.61 1479.46 1476.64C1485.54 1472.67 1488.58 1466.92 1488.58 1459.4C1488.58 1453.44 1486.54 1448.53 1482.44 1444.67C1478.35 1440.8 1473.16 1437.65 1466.87 1435.21C1460.58 1432.79 1451.91 1430.03 1440.86 1426.93C1424.95 1422.52 1411.98 1418.11 1401.92 1413.68C1391.87 1409.27 1383.2 1402.53 1375.91 1393.47C1368.63 1384.41 1364.98 1372.37 1364.98 1357.35C1364.98 1343.44 1368.74 1331.23 1376.24 1320.73C1383.75 1310.24 1394.24 1302.17 1407.72 1296.55C1421.2 1290.92 1436.88 1288.09 1454.78 1288.09C1470.68 1288.09 1486.36 1290.41 1501.83 1295.05C1517.28 1299.69 1530.99 1305.88 1542.92 1313.61L1522.71 1357.01C1510.78 1349.73 1498.12 1343.93 1484.76 1339.63Z"
    fill="black"
  />
  <path
    d="M1568.1 1292.4H1761.94V1336.8H1691.03V1524.35H1638.67V1336.8H1568.1V1292.4Z"
    fill="black"
  />
  <path
    d="M1738.26 1218.31H112.627C99.9187 1218.31 89.6173 1208 89.6173 1195.29C89.6173 1182.59 99.9187 1172.28 112.627 1172.28H1738.26C1750.96 1172.28 1761.27 1182.59 1761.27 1195.29C1761.27 1208 1750.96 1218.31 1738.26 1218.31Z"
    fill="black"
  />
</svg>
